<svg viewBox="0 0 700 700" xmlns="http://www.w3.org/2000/svg">
    <path d="M498.406 297.9c0 24.717-15.866 46.983-38.942 55.303a44.454 44.454 0 0 1 2.783 15.521c0 24.546-19.97 44.51-44.516 44.51-9.91 0-19.468-3.37-27.284-9.506-15.702 21.921-40.818 34.93-67.9 34.93-46.137 0-83.668-37.533-83.668-83.67 0-5.408.54-10.757 1.53-15.942-23.316-8.4-38.815-30.247-38.815-55.25 0-24.719 15.867-46.978 38.942-55.305a44.41 44.41 0 0 1-2.783-15.513c0-24.547 19.97-44.516 44.516-44.516a44.35 44.35 0 0 1 27.247 9.324C325.308 155.956 350.439 143 377.453 143c46.249 0 83.87 37.622 83.87 83.864 0 5.461-.531 10.705-1.552 15.95 23.21 8.461 38.635 30.21 38.635 55.085z" fill="#FEFEFE"/>
    <path d="M318.287 270.333l64.946 29.608 65.527-57.415a72.526 72.526 0 0 0 1.412-14.4c0-40.397-32.86-73.264-73.256-73.264-24.167 0-46.708 11.9-60.41 31.852l-10.898 56.548 12.679 27.07z" fill="#FED10C"/>
    <path d="M251.06 339.108a74.537 74.537 0 0 0-1.435 14.621c0 40.5 32.955 73.455 73.462 73.455 24.365 0 47.017-12.01 60.696-32.168l10.818-56.356-14.437-27.587-65.203-29.718-63.902 57.753z" fill="#22B9AF"/>
    <path d="M250.648 226.714l44.508 10.51 9.752-50.606a35.146 35.146 0 0 0-21.313-7.193c-19.342 0-35.072 15.74-35.072 35.081 0 4.272.713 8.37 2.125 12.208" fill="#EE5097"/>
    <path d="M246.784 237.315c-19.886 6.589-33.712 25.652-33.712 46.619 0 20.416 12.627 38.647 31.579 45.862l62.446-56.445-11.465-24.497-48.848-11.54z" fill="#15A6DF"/>
    <path d="M395.2 395.014c6.104 4.692 13.576 7.251 21.203 7.251 19.34 0 35.072-15.73 35.072-35.072 0-4.265-.713-8.361-2.125-12.2l-44.472-10.407-9.678 50.428z" fill="#91C63F"/>
    <path d="M404.249 332.929l48.958 11.45c19.894-6.574 33.72-25.644 33.72-46.618 0-20.38-12.657-38.59-31.646-45.781l-64.034 56.098 13.002 24.85z" fill="#0979A0"/>
    <path d="M224.658 517.907c0-8.176-1.312-13.952-3.933-17.33-2.622-3.377-6.888-5.066-12.797-5.066-5.912 0-10.354 1.779-13.33 5.333-2.98 3.555-4.513 9.243-4.6 17.063h34.66zm3.6 28.927l3.865-.4.267 7.867c-10.13 1.419-18.796 2.132-25.995 2.132-9.598 0-16.397-2.776-20.397-8.332C182 542.548 180 533.904 180 522.173c0-23.373 9.285-35.06 27.861-35.06 8.976 0 15.685 2.51 20.13 7.53 4.443 5.023 6.665 12.912 6.665 23.663l-.533 7.599h-43.992c0 7.378 1.333 12.844 4 16.397 2.666 3.556 7.308 5.333 13.93 5.333 6.62 0 13.352-.267 20.196-.801zm20.341 9.084h9.998v-87.742h-9.998zm31.902-20.148c0 8.178 3.377 12.265 10.131 12.265 6.043 0 11.998-1.021 17.864-3.066l3.066-1.068v-21.995l-19.73 1.866c-3.999.357-6.888 1.512-8.664 3.466-1.78 1.956-2.667 4.799-2.667 8.532m41.06-27.195v33.623c0 3.332 8.296 3.199 8.296 3.199l-.51 8.833c-7.022 0-12.836.583-16.328-2.794-7.999 3.555-15.987 4.997-23.986 4.997-6.133 0-10.798-1.733-13.997-5.2-3.2-3.465-4.8-8.442-4.8-14.93 0-6.486 1.643-11.264 4.932-14.331 3.288-3.066 8.443-4.952 15.464-5.665l20.93-2v-5.732c0-4.532-.979-7.776-2.933-9.732-1.956-1.953-4.622-2.932-7.998-2.932l-26.27.022v-8.821h25.603c7.553 0 13.041 1.734 16.464 5.199 3.42 3.466 5.132 8.889 5.132 16.264m39.023-12.531c-9.688 0-14.531 3.378-14.531 10.13 0 3.114 1.11 5.313 3.333 6.6 2.22 1.29 7.286 2.623 15.197 3.999 7.909 1.379 13.508 3.313 16.797 5.799 3.287 2.49 4.933 7.156 4.933 13.998 0 6.844-2.2 11.864-6.6 15.063-4.4 3.2-10.82 4.8-19.262 4.8-5.512 0-23.901-2.04-23.901-2.04l.533-8.665c10.57 1.019 18.212 1.773 23.368 1.773 5.153 0 9.085-.821 11.797-2.466 2.71-1.644 4.066-4.4 4.066-8.265 0-3.866-1.156-6.487-3.465-7.865-2.313-1.377-7.38-2.688-15.198-3.933-7.821-1.243-13.377-3.066-16.663-5.466-3.29-2.4-4.933-6.842-4.933-13.331 0-6.486 2.287-11.285 6.865-14.397 4.577-3.11 10.286-4.666 17.13-4.666 5.42 0 24.23 1.379 24.23 1.379v8.717c-9.894-.452-18.01-1.164-23.696-1.164m73.949 1.066h-21.196v31.861c0 7.644.554 12.664 1.667 15.063 1.11 2.401 3.753 3.6 7.931 3.6l11.865-.8.667 8.265c-5.956.977-10.488 1.467-13.599 1.467-6.93 0-11.73-1.687-14.397-5.066-2.666-3.376-3.999-9.819-3.999-19.33v-35.06h-9.465v-8.665h9.465v-20.397h9.865v20.397h21.196v8.665zm13.9 58.808h9.999v-67.473h-9.999v67.473zm0-75.988h9.999v-11.598h-9.999v11.598zm53.304 7.182c2.935 0 7.91.534 14.932 1.6l3.198.4-.4 8.131c-7.11-.799-12.353-1.199-15.73-1.199-7.554 0-12.686 1.8-15.397 5.4-2.712 3.598-4.065 10.263-4.065 19.995 0 9.731 1.267 16.51 3.798 20.33 2.534 3.822 7.8 5.732 15.798 5.732l15.73-1.2.4 8.265c-8.264 1.243-14.442 1.866-18.53 1.866-10.399 0-17.576-2.666-21.529-7.998-3.955-5.332-5.932-14.33-5.932-26.995 0-12.664 2.132-21.55 6.399-26.662 4.265-5.109 11.375-7.665 21.328-7.665" fill="#221E1F"/>
</svg>
