<svg viewBox="0 0 325 325" xmlns="http://www.w3.org/2000/svg">
    <circle fill="#231F20" cx="162.5" cy="162.5" r="150"/>
    <path d="M281.685 168.041c0 19.85-12.742 37.733-31.274 44.414a35.701 35.701 0 0 1 2.235 12.465c0 19.713-16.038 35.747-35.751 35.747-7.959 0-15.635-2.707-21.912-7.635-12.61 17.605-32.781 28.053-54.53 28.053-37.053 0-67.195-30.143-67.195-67.196 0-4.343.434-8.639 1.229-12.803-18.725-6.746-31.172-24.292-31.172-44.372 0-19.851 12.742-37.728 31.274-44.415a35.666 35.666 0 0 1-2.235-12.459c0-19.714 16.038-35.75 35.751-35.75a35.618 35.618 0 0 1 21.882 7.487c12.683-17.531 32.866-27.936 54.56-27.936 37.143 0 67.357 30.214 67.357 67.351 0 4.386-.427 8.597-1.246 12.81 18.64 6.795 31.027 24.261 31.027 44.239z" fill="#FEFEFE"/>
    <path d="M137.031 145.902l52.159 23.779 52.625-46.11a58.246 58.246 0 0 0 1.134-11.565c0-32.443-26.39-58.839-58.833-58.839-19.408 0-37.511 9.557-48.515 25.58l-8.752 45.414 10.182 21.74v.001z" fill="#FED10C"/>
    <path d="M83.04 201.136a59.861 59.861 0 0 0-1.152 11.742c0 32.526 26.467 58.992 58.998 58.992a58.803 58.803 0 0 0 48.745-25.834l8.688-45.26-11.594-22.155-52.365-23.867-51.32 46.382z" fill="#22B9AF"/>
    <path d="M82.71 110.872l35.745 8.44 7.831-40.642a28.226 28.226 0 0 0-17.116-5.776c-15.534 0-28.167 12.64-28.167 28.173 0 3.431.573 6.722 1.707 9.805" fill="#EE5097"/>
    <path d="M79.607 119.385c-15.97 5.292-27.074 20.602-27.074 37.44 0 16.396 10.14 31.038 25.36 36.832l50.151-45.331-9.207-19.674-39.23-9.267z" fill="#15A6DF"/>
    <path d="M198.8 246.034c4.902 3.768 10.903 5.823 17.029 5.823 15.532 0 28.166-12.632 28.166-28.166 0-3.425-.573-6.715-1.707-9.798l-35.715-8.358-7.773 40.499z" fill="#91C63F"/>
    <path d="M206.068 196.173l39.318 9.196c15.977-5.28 27.08-20.595 27.08-37.44 0-16.366-10.164-30.991-25.414-36.766l-51.426 45.052 10.442 19.958z" fill="#0979A0"/>
</svg>
